<svg xmlns="http://www.w3.org/2000/svg" xmlns:xlink="http://www.w3.org/1999/xlink" contentStyleType="text/css" data-diagram-type="DESCRIPTION" height="608px" preserveAspectRatio="none" style="width:3281px;height:608px;background:#FFFFFF;" version="1.1" viewBox="0 0 3281 608" width="3281px" zoomAndPan="magnify"><defs/><g><!--cluster Flutter UI Layer--><g class="cluster" data-entity="Flutter UI Layer" data-source-line="10" data-uid="ent0002" id="cluster_Flutter UI Layer"><path d="M1968.5,6 L2093.832,6 A3.75,3.75 0 0 1 2096.332,8.5 L2103.332,28.2969 L2852.5,28.2969 A2.5,2.5 0 0 1 2855,30.7969 L2855,90.79 A2.5,2.5 0 0 1 2852.5,93.29 L1968.5,93.29 A2.5,2.5 0 0 1 1966,90.79 L1966,8.5 A2.5,2.5 0 0 1 1968.5,6" fill="none" style="stroke:#000000;stroke-width:1.5;"/><line style="stroke:#000000;stroke-width:1.5;" x1="1966" x2="2103.332" y1="28.2969" y2="28.2969"/><text fill="#000000" font-family="sans-serif" font-size="14" font-weight="bold" lengthAdjust="spacing" textLength="124.332" x="1970" y="20.9951">Flutter UI Layer</text></g><!--cluster State Management (Provider)--><g class="cluster" data-entity="State Management .Provider." data-source-line="19" data-uid="ent0009" id="cluster_State Management .Provider."><path d="M2271.5,135.71 L2507.6357,135.71 A3.75,3.75 0 0 1 2510.1357,138.21 L2517.1357,158.0069 L2740.5,158.0069 A2.5,2.5 0 0 1 2743,160.5069 L2743,581.68 A2.5,2.5 0 0 1 2740.5,584.18 L2271.5,584.18 A2.5,2.5 0 0 1 2269,581.68 L2269,138.21 A2.5,2.5 0 0 1 2271.5,135.71" fill="none" style="stroke:#000000;stroke-width:1.5;"/><line style="stroke:#000000;stroke-width:1.5;" x1="2269" x2="2517.1357" y1="158.0069" y2="158.0069"/><text fill="#000000" font-family="sans-serif" font-size="14" font-weight="bold" lengthAdjust="spacing" textLength="235.1357" x="2273" y="150.7051">State Management (Provider)</text></g><!--cluster ROS Backend--><g class="cluster" data-entity="ROS Backend" data-source-line="27" data-uid="ent0015" id="cluster_ROS Backend"><path d="M8.5,6 L114.3496,6 A3.75,3.75 0 0 1 116.8496,8.5 L123.8496,28.2969 L1908.5,28.2969 A2.5,2.5 0 0 1 1911,30.7969 L1911,220.5 A2.5,2.5 0 0 1 1908.5,223 L8.5,223 A2.5,2.5 0 0 1 6,220.5 L6,8.5 A2.5,2.5 0 0 1 8.5,6" fill="none" style="stroke:#000000;stroke-width:1.5;"/><line style="stroke:#000000;stroke-width:1.5;" x1="6" x2="123.8496" y1="28.2969" y2="28.2969"/><text fill="#000000" font-family="sans-serif" font-size="14" font-weight="bold" lengthAdjust="spacing" textLength="104.8496" x="10" y="20.9951">ROS Backend</text></g><!--entity main_page--><g class="entity" data-entity="main_page" data-source-line="11" data-uid="ent0003" id="entity_main_page"><rect fill="#F1F1F1" height="36.2969" rx="2.5" ry="2.5" style="stroke:#181818;stroke-width:0.5;" width="87.9424" x="2448.03" y="41"/><text fill="#000000" font-family="sans-serif" font-size="14" lengthAdjust="spacing" textLength="67.9424" x="2458.03" y="63.9951">MainPage</text></g><!--entity connect_page--><g class="entity" data-entity="connect_page" data-source-line="12" data-uid="ent0004" id="entity_connect_page"><rect fill="#F1F1F1" height="36.2969" rx="2.5" ry="2.5" style="stroke:#181818;stroke-width:0.5;" width="112.4082" x="1981.8" y="41"/><text fill="#000000" font-family="sans-serif" font-size="14" lengthAdjust="spacing" textLength="92.4082" x="1991.8" y="63.9951">ConnectPage</text></g><!--entity gamepad_widget--><g class="entity" data-entity="gamepad_widget" data-source-line="13" data-uid="ent0005" id="entity_gamepad_widget"><rect fill="#F1F1F1" height="36.2969" rx="2.5" ry="2.5" style="stroke:#181818;stroke-width:0.5;" width="137.6396" x="2129.18" y="41"/><text fill="#000000" font-family="sans-serif" font-size="14" lengthAdjust="spacing" textLength="117.6396" x="2139.18" y="63.9951">GamepadWidget</text></g><!--entity diagnostic_page--><g class="entity" data-entity="diagnostic_page" data-source-line="14" data-uid="ent0006" id="entity_diagnostic_page"><rect fill="#F1F1F1" height="36.2969" rx="2.5" ry="2.5" style="stroke:#181818;stroke-width:0.5;" width="128.4658" x="2710.77" y="41"/><text fill="#000000" font-family="sans-serif" font-size="14" lengthAdjust="spacing" textLength="108.4658" x="2720.77" y="63.9951">DiagnosticPage</text></g><!--entity map_edit_page--><g class="entity" data-entity="map_edit_page" data-source-line="15" data-uid="ent0007" id="entity_map_edit_page"><rect fill="#F1F1F1" height="36.2969" rx="2.5" ry="2.5" style="stroke:#181818;stroke-width:0.5;" width="111.1777" x="2301.41" y="41"/><text fill="#000000" font-family="sans-serif" font-size="14" lengthAdjust="spacing" textLength="91.1777" x="2311.41" y="63.9951">MapEditPage</text></g><!--entity setting_page--><g class="entity" data-entity="setting_page" data-source-line="16" data-uid="ent0008" id="entity_setting_page"><rect fill="#F1F1F1" height="36.2969" rx="2.5" ry="2.5" style="stroke:#181818;stroke-width:0.5;" width="104.6494" x="2570.68" y="41"/><text fill="#000000" font-family="sans-serif" font-size="14" lengthAdjust="spacing" textLength="84.6494" x="2580.68" y="63.9951">SettingPage</text></g><!--entity global_state--><g class="entity" data-entity="global_state" data-source-line="20" data-uid="ent0010" id="entity_global_state"><rect fill="#F1F1F1" height="36.2969" rx="2.5" ry="2.5" style="stroke:#181818;stroke-width:0.5;" width="101.7168" x="2625.14" y="170.71"/><text fill="#000000" font-family="sans-serif" font-size="14" lengthAdjust="spacing" textLength="81.7168" x="2635.14" y="193.7051">GlobalState</text></g><!--entity ros_channel--><g class="entity" data-entity="ros_channel" data-source-line="21" data-uid="ent0011" id="entity_ros_channel"><rect fill="#F1F1F1" height="36.2969" rx="2.5" ry="2.5" style="stroke:#181818;stroke-width:0.5;" width="103.0635" x="2285.47" y="351.29"/><text fill="#000000" font-family="sans-serif" font-size="14" lengthAdjust="spacing" textLength="83.0635" x="2295.47" y="374.2851">RosChannel</text></g><!--entity diagnostic_manager--><g class="entity" data-entity="diagnostic_manager" data-source-line="22" data-uid="ent0012" id="entity_diagnostic_manager"><rect fill="#F1F1F1" height="36.2969" rx="2.5" ry="2.5" style="stroke:#181818;stroke-width:0.5;" width="155.3105" x="2571.34" y="531.88"/><text fill="#000000" font-family="sans-serif" font-size="14" lengthAdjust="spacing" textLength="135.3105" x="2581.34" y="554.8751">DiagnosticManager</text></g><!--entity nav_point_manager--><g class="entity" data-entity="nav_point_manager" data-source-line="23" data-uid="ent0013" id="entity_nav_point_manager"><rect fill="#F1F1F1" height="36.2969" rx="2.5" ry="2.5" style="stroke:#181818;stroke-width:0.5;" width="143.9629" x="2285.02" y="170.71"/><text fill="#000000" font-family="sans-serif" font-size="14" lengthAdjust="spacing" textLength="123.9629" x="2295.02" y="193.7051">NavPointManager</text></g><!--entity theme_provider--><g class="entity" data-entity="theme_provider" data-source-line="24" data-uid="ent0014" id="entity_theme_provider"><rect fill="#F1F1F1" height="36.2969" rx="2.5" ry="2.5" style="stroke:#181818;stroke-width:0.5;" width="126.4834" x="2463.76" y="170.71"/><text fill="#000000" font-family="sans-serif" font-size="14" lengthAdjust="spacing" textLength="106.4834" x="2473.76" y="193.7051">ThemeProvider</text></g><!--entity ros_server--><g class="entity" data-entity="ros_server" data-source-line="28" data-uid="ent0016" id="entity_ros_server"><rect fill="#F1F1F1" height="36.2969" rx="2.5" ry="2.5" style="stroke:#181818;stroke-width:0.5;" width="99.9941" x="851" y="41"/><text fill="#000000" font-family="sans-serif" font-size="14" lengthAdjust="spacing" textLength="79.9941" x="861" y="63.9951">ROS Server</text></g><!--entity map_topic--><g class="entity" data-entity="map_topic" data-source-line="29" data-uid="ent0017" id="entity_map_topic"><rect fill="#F1F1F1" height="36.2969" rx="2.5" ry="2.5" style="stroke:#181818;stroke-width:0.5;" width="87.1357" x="731.43" y="170.71"/><text fill="#000000" font-family="sans-serif" font-size="14" lengthAdjust="spacing" textLength="67.1357" x="741.43" y="193.7051">MapTopic</text></g><!--entity laser_topic--><g class="entity" data-entity="laser_topic" data-source-line="30" data-uid="ent0018" id="entity_laser_topic"><rect fill="#F1F1F1" height="36.2969" rx="2.5" ry="2.5" style="stroke:#181818;stroke-width:0.5;" width="95.6328" x="853.18" y="170.71"/><text fill="#000000" font-family="sans-serif" font-size="14" lengthAdjust="spacing" textLength="75.6328" x="863.18" y="193.7051">LaserTopic</text></g><!--entity odom_topic--><g class="entity" data-entity="odom_topic" data-source-line="31" data-uid="ent0019" id="entity_odom_topic"><rect fill="#F1F1F1" height="36.2969" rx="2.5" ry="2.5" style="stroke:#181818;stroke-width:0.5;" width="99.7002" x="984.15" y="170.71"/><text fill="#000000" font-family="sans-serif" font-size="14" lengthAdjust="spacing" textLength="79.7002" x="994.15" y="193.7051">OdomTopic</text></g><!--entity battery_topic--><g class="entity" data-entity="battery_topic" data-source-line="32" data-uid="ent0020" id="entity_battery_topic"><rect fill="#F1F1F1" height="36.2969" rx="2.5" ry="2.5" style="stroke:#181818;stroke-width:0.5;" width="109.4072" x="1119.3" y="170.71"/><text fill="#000000" font-family="sans-serif" font-size="14" lengthAdjust="spacing" textLength="89.4072" x="1129.3" y="193.7051">BatteryTopic</text></g><!--entity nav_goal_topic--><g class="entity" data-entity="nav_goal_topic" data-source-line="33" data-uid="ent0021" id="entity_nav_goal_topic"><rect fill="#F1F1F1" height="36.2969" rx="2.5" ry="2.5" style="stroke:#181818;stroke-width:0.5;" width="116.8105" x="1263.59" y="170.71"/><text fill="#000000" font-family="sans-serif" font-size="14" lengthAdjust="spacing" textLength="96.8105" x="1273.59" y="193.7051">NavGoalTopic</text></g><!--entity speed_ctrl_topic--><g class="entity" data-entity="speed_ctrl_topic" data-source-line="34" data-uid="ent0022" id="entity_speed_ctrl_topic"><rect fill="#F1F1F1" height="36.2969" rx="2.5" ry="2.5" style="stroke:#181818;stroke-width:0.5;" width="126.3877" x="1415.81" y="170.71"/><text fill="#000000" font-family="sans-serif" font-size="14" lengthAdjust="spacing" textLength="106.3877" x="1425.81" y="193.7051">SpeedCtrlTopic</text></g><!--entity diagnostic_topic--><g class="entity" data-entity="diagnostic_topic" data-source-line="35" data-uid="ent0023" id="entity_diagnostic_topic"><rect fill="#F1F1F1" height="36.2969" rx="2.5" ry="2.5" style="stroke:#181818;stroke-width:0.5;" width="131.5352" x="1577.23" y="170.71"/><text fill="#000000" font-family="sans-serif" font-size="14" lengthAdjust="spacing" textLength="111.5352" x="1587.23" y="193.7051">DiagnosticTopic</text></g><!--entity topology_map_topic--><g class="entity" data-entity="topology_map_topic" data-source-line="36" data-uid="ent0024" id="entity_topology_map_topic"><rect fill="#F1F1F1" height="36.2969" rx="2.5" ry="2.5" style="stroke:#181818;stroke-width:0.5;" width="151.332" x="1743.33" y="170.71"/><text fill="#000000" font-family="sans-serif" font-size="14" lengthAdjust="spacing" textLength="131.332" x="1753.33" y="193.7051">TopologyMapTopic</text></g><!--entity tf_topic--><g class="entity" data-entity="tf_topic" data-source-line="37" data-uid="ent0025" id="entity_tf_topic"><rect fill="#F1F1F1" height="36.2969" rx="2.5" ry="2.5" style="stroke:#181818;stroke-width:0.5;" width="81.1953" x="22.4" y="170.71"/><text fill="#000000" font-family="sans-serif" font-size="14" lengthAdjust="spacing" textLength="61.1953" x="32.4" y="193.7051">TF_Topic</text></g><!--entity path_topics--><g class="entity" data-entity="path_topics" data-source-line="38" data-uid="ent0026" id="entity_path_topics"><rect fill="#F1F1F1" height="36.2969" rx="2.5" ry="2.5" style="stroke:#181818;stroke-width:0.5;" width="96.2686" x="138.87" y="170.71"/><text fill="#000000" font-family="sans-serif" font-size="14" lengthAdjust="spacing" textLength="76.2686" x="148.87" y="193.7051">PathTopics</text></g><!--entity costmap_topics--><g class="entity" data-entity="costmap_topics" data-source-line="39" data-uid="ent0027" id="entity_costmap_topics"><rect fill="#F1F1F1" height="36.2969" rx="2.5" ry="2.5" style="stroke:#181818;stroke-width:0.5;" width="127.1123" x="270.44" y="170.71"/><text fill="#000000" font-family="sans-serif" font-size="14" lengthAdjust="spacing" textLength="107.1123" x="280.44" y="193.7051">CostmapTopics</text></g><!--entity pointcloud_topic--><g class="entity" data-entity="pointcloud_topic" data-source-line="40" data-uid="ent0028" id="entity_pointcloud_topic"><rect fill="#F1F1F1" height="36.2969" rx="2.5" ry="2.5" style="stroke:#181818;stroke-width:0.5;" width="132.8408" x="432.58" y="170.71"/><text fill="#000000" font-family="sans-serif" font-size="14" lengthAdjust="spacing" textLength="112.8408" x="442.58" y="193.7051">PointCloudTopic</text></g><!--entity reloc_topic--><g class="entity" data-entity="reloc_topic" data-source-line="41" data-uid="ent0029" id="entity_reloc_topic"><rect fill="#F1F1F1" height="36.2969" rx="2.5" ry="2.5" style="stroke:#181818;stroke-width:0.5;" width="96.084" x="599.96" y="170.71"/><text fill="#000000" font-family="sans-serif" font-size="14" lengthAdjust="spacing" textLength="76.084" x="609.96" y="193.7051">RelocTopic</text></g><g class="entity" data-entity="GMN74" data-source-line="106" data-uid="ent0075" id="entity_GMN74"><path d="M2758.69,300.42 L2758.69,371.59 L2388.58,375.59 L2758.69,379.59 L2758.69,438.4669 A0,0 0 0 0 2758.69,438.4669 L2961.3013,438.4669 A0,0 0 0 0 2961.3013,438.4669 L2961.3013,310.42 L2951.3013,300.42 L2758.69,300.42 A0,0 0 0 0 2758.69,300.42" fill="#FEFFDD" style="stroke:#181818;stroke-width:0.5;"/><path d="M2951.3013,300.42 L2951.3013,310.42 L2961.3013,310.42 L2951.3013,300.42" fill="#FEFFDD" style="stroke:#181818;stroke-width:0.5;"/><text fill="#000000" font-family="sans-serif" font-size="10" lengthAdjust="spacing" textLength="181.6113" x="2764.69" y="314.7022">Contains multiple ValueNotifiers for:</text><text fill="#000000" font-family="sans-serif" font-size="10" lengthAdjust="spacing" textLength="53.5938" x="2828.6988" y="326.3429">- Map data</text><text fill="#000000" font-family="sans-serif" font-size="10" lengthAdjust="spacing" textLength="63.2471" x="2823.8721" y="337.9835">- Robot pose</text><text fill="#000000" font-family="sans-serif" font-size="10" lengthAdjust="spacing" textLength="59.6631" x="2825.6641" y="349.6241">- Laser data</text><text fill="#000000" font-family="sans-serif" font-size="10" lengthAdjust="spacing" textLength="91.8457" x="2809.5728" y="361.2647">- Navigation paths</text><text fill="#000000" font-family="sans-serif" font-size="10" lengthAdjust="spacing" textLength="77.7051" x="2816.6431" y="372.9054">- Battery status</text><text fill="#000000" font-family="sans-serif" font-size="10" lengthAdjust="spacing" textLength="69.6289" x="2820.6812" y="384.546">- Robot speed</text><text fill="#000000" font-family="sans-serif" font-size="10" lengthAdjust="spacing" textLength="56.4453" x="2827.273" y="396.1866">- Costmaps</text><text fill="#000000" font-family="sans-serif" font-size="10" lengthAdjust="spacing" textLength="87.9346" x="2811.5284" y="407.8272">- Point cloud data</text><text fill="#000000" font-family="sans-serif" font-size="10" lengthAdjust="spacing" textLength="85.3076" x="2812.8419" y="419.4679">- Diagnostic data</text><text fill="#000000" font-family="sans-serif" font-size="10" lengthAdjust="spacing" textLength="94.6289" x="2808.1812" y="431.1085">- Navigation status</text></g><g class="entity" data-entity="GMN77" data-source-line="120" data-uid="ent0078" id="entity_GMN77"><path d="M2761.58,498.46 L2761.58,552.59 L2727,556.59 L2761.58,560.59 L2761.58,601.585 A0,0 0 0 0 2761.58,601.585 L2938.4198,601.585 A0,0 0 0 0 2938.4198,601.585 L2938.4198,508.46 L2928.4198,498.46 L2761.58,498.46 A0,0 0 0 0 2761.58,498.46" fill="#FEFFDD" style="stroke:#181818;stroke-width:0.5;"/><path d="M2928.4198,498.46 L2928.4198,508.46 L2938.4198,508.46 L2928.4198,498.46" fill="#FEFFDD" style="stroke:#181818;stroke-width:0.5;"/><text fill="#000000" font-family="sans-serif" font-size="10" lengthAdjust="spacing" textLength="136.665" x="2777.1674" y="512.7422">Manages diagnostic states:</text><text fill="#000000" font-family="sans-serif" font-size="10" lengthAdjust="spacing" textLength="38.5596" x="2826.2201" y="524.3829">- OK (0)</text><text fill="#000000" font-family="sans-serif" font-size="10" lengthAdjust="spacing" textLength="55.2881" x="2817.8559" y="536.0235">- WARN (1)</text><text fill="#000000" font-family="sans-serif" font-size="10" lengthAdjust="spacing" textLength="59.165" x="2815.9174" y="547.6641">- ERROR (2)</text><text fill="#000000" font-family="sans-serif" font-size="10" lengthAdjust="spacing" textLength="55.3174" x="2817.8412" y="559.3047">- STALE (3)</text><text fill="#000000" font-family="sans-serif" font-size="10" lengthAdjust="spacing" textLength="3.1787" x="2843.9106" y="570.9454">&#160;</text><text fill="#000000" font-family="sans-serif" font-size="10" lengthAdjust="spacing" textLength="155.8398" x="2767.58" y="582.586">Provides real-time notifications</text><text fill="#000000" font-family="sans-serif" font-size="10" lengthAdjust="spacing" textLength="119.3896" x="2785.8051" y="594.2266">for new errors/warnings</text></g><g class="entity" data-entity="GMN80" data-source-line="131" data-uid="ent0081" id="entity_GMN80"><path d="M3137.84,137.29 L3137.84,185.59 L2727.3,189.59 L3137.84,193.59 L3137.84,240.415 A0,0 0 0 0 3137.84,240.415 L3274.1623,240.415 A0,0 0 0 0 3274.1623,240.415 L3274.1623,147.29 L3264.1623,137.29 L3137.84,137.29 A0,0 0 0 0 3137.84,137.29" fill="#FEFFDD" style="stroke:#181818;stroke-width:0.5;"/><path d="M3264.1623,137.29 L3264.1623,147.29 L3274.1623,147.29 L3264.1623,137.29" fill="#FEFFDD" style="stroke:#181818;stroke-width:0.5;"/><text fill="#000000" font-family="sans-serif" font-size="10" lengthAdjust="spacing" textLength="95.9912" x="3153.5055" y="151.5722">Application modes:</text><text fill="#000000" font-family="sans-serif" font-size="10" lengthAdjust="spacing" textLength="43.1445" x="3179.9289" y="163.2129">- Normal</text><text fill="#000000" font-family="sans-serif" font-size="10" lengthAdjust="spacing" textLength="34.2822" x="3184.36" y="174.8535">- Reloc</text><text fill="#000000" font-family="sans-serif" font-size="10" lengthAdjust="spacing" textLength="71.0352" x="3165.9836" y="186.4941">- AddNavPoint</text><text fill="#000000" font-family="sans-serif" font-size="10" lengthAdjust="spacing" textLength="96.8457" x="3153.0783" y="198.1347">- RobotFixedCenter</text><text fill="#000000" font-family="sans-serif" font-size="10" lengthAdjust="spacing" textLength="47.2559" x="3177.8732" y="209.7754">- MapEdit</text><text fill="#000000" font-family="sans-serif" font-size="10" lengthAdjust="spacing" textLength="3.1787" x="3199.9118" y="221.416">&#160;</text><text fill="#000000" font-family="sans-serif" font-size="10" lengthAdjust="spacing" textLength="115.3223" x="3143.84" y="233.0566">Layer visibility settings</text></g><!--link main_page to ros_channel--><g class="link" data-entity-1="main_page" data-entity-2="ros_channel" data-source-line="45" data-uid="lnk30" id="link_main_page_ros_channel"><path d="M2455.89,77.73 C2455.89,143.83 2455.89,363.59 2455.89,363.59 C2455.89,363.59 2426.84,363.59 2394.8,363.59" fill="none" id="main_page-to-ros_channel" style="stroke:#181818;stroke-width:1;"/><polygon fill="#181818" points="2388.8,363.59,2397.8,367.59,2393.8,363.59,2397.8,359.59,2388.8,363.59" style="stroke:#181818;stroke-width:1;"/><text fill="#000000" font-family="sans-serif" font-size="13" lengthAdjust="spacing" textLength="138.7153" x="2458.6515" y="267.2769">Listens to robot state</text><text fill="#000000" font-family="sans-serif" font-size="13" lengthAdjust="spacing" textLength="119.647" x="2468.1857" y="282.4097">(Map, Pose, Paths,</text><text fill="#000000" font-family="sans-serif" font-size="13" lengthAdjust="spacing" textLength="112.2773" x="2471.8705" y="297.5425">Laser, Costmaps,</text><text fill="#000000" font-family="sans-serif" font-size="13" lengthAdjust="spacing" textLength="142.2383" x="2456.89" y="312.6753">Footprint, PointCloud)</text></g><!--link ros_channel to main_page--><g class="link" data-entity-1="ros_channel" data-entity-2="main_page" data-source-line="100" data-uid="lnk70" id="link_ros_channel_main_page"><path d="M2389.01,357.59 C2419.97,357.59 2453.27,357.59 2453.27,357.59 C2453.27,357.59 2453.27,148.16 2453.27,83.36" fill="none" id="ros_channel-to-main_page" style="stroke:#181818;stroke-width:1;"/><polygon fill="#181818" points="2453.27,77.36,2449.27,86.36,2453.27,82.36,2457.27,86.36,2453.27,77.36" style="stroke:#181818;stroke-width:1;"/><text fill="#000000" font-family="sans-serif" font-size="13" lengthAdjust="spacing" textLength="141.3369" x="2311.27" y="262.6769">ValueNotifier updates</text><text fill="#000000" font-family="sans-serif" font-size="13" lengthAdjust="spacing" textLength="119.647" x="2322.115" y="277.8097">(Map, Pose, Paths,</text><text fill="#000000" font-family="sans-serif" font-size="13" lengthAdjust="spacing" textLength="95.8369" x="2334.02" y="292.9425">Laser, Battery,</text><text fill="#000000" font-family="sans-serif" font-size="13" lengthAdjust="spacing" textLength="78.4634" x="2342.7068" y="308.0753">Speed, etc.)</text></g><!--link main_page to global_state--><g class="link" data-entity-1="main_page" data-entity-2="global_state" data-source-line="46" data-uid="lnk31" id="link_main_page_global_state"><path d="M2499.86,77.57 C2499.86,106.57 2499.86,159.59 2499.86,159.59 C2499.86,159.59 2637.69,159.59 2637.69,159.59 C2637.69,159.59 2637.69,158.61 2637.69,164.49" fill="none" id="main_page-to-global_state" style="stroke:#181818;stroke-width:1;"/><polygon fill="#181818" points="2637.69,170.49,2641.69,161.49,2637.69,165.49,2633.69,161.49,2637.69,170.49" style="stroke:#181818;stroke-width:1;"/><text fill="#000000" font-family="sans-serif" font-size="13" lengthAdjust="spacing" textLength="100.6484" x="2432.21" y="140.6569">Uses mode and</text><text fill="#000000" font-family="sans-serif" font-size="13" lengthAdjust="spacing" textLength="88.5879" x="2438.2403" y="155.7897">layer settings</text></g><!--link global_state to main_page--><g class="link" data-entity-1="global_state" data-entity-2="main_page" data-source-line="103" data-uid="lnk73" id="link_global_state_main_page"><path d="M2662.78,170.61 C2662.78,159.95 2662.78,148.59 2662.78,148.59 C2662.78,148.59 2517.92,148.59 2517.92,148.59 C2517.92,148.59 2517.92,109.88 2517.92,83.68" fill="none" id="global_state-to-main_page" style="stroke:#181818;stroke-width:1;"/><polygon fill="#181818" points="2517.92,77.68,2513.92,86.68,2517.92,82.68,2521.92,86.68,2517.92,77.68" style="stroke:#181818;stroke-width:1;"/><text fill="#000000" font-family="sans-serif" font-size="13" lengthAdjust="spacing" textLength="159.5039" x="2566.9" y="161.6569">Mode and layer changes</text></g><!--link main_page to nav_point_manager--><g class="link" data-entity-1="main_page" data-entity-2="nav_point_manager" data-source-line="47" data-uid="lnk32" id="link_main_page_nav_point_manager"><path d="M2447.71,59.59 C2433.23,59.59 2420.79,59.59 2420.79,59.59 C2420.79,59.59 2420.79,128.59 2420.79,164.33" fill="none" id="main_page-to-nav_point_manager" style="stroke:#181818;stroke-width:1;"/><polygon fill="#181818" points="2420.79,170.33,2424.79,161.33,2420.79,165.33,2416.79,161.33,2420.79,170.33" style="stroke:#181818;stroke-width:1;"/><text fill="#000000" font-family="sans-serif" font-size="13" lengthAdjust="spacing" textLength="175.2334" x="2244.79" y="97.5669">Manages navigation points</text></g><!--link nav_point_manager to main_page--><g class="link" data-entity-1="nav_point_manager" data-entity-2="main_page" data-source-line="102" data-uid="lnk72" id="link_nav_point_manager_main_page"><path d="M2429.4,189.59 C2441.73,189.59 2450.65,189.59 2450.65,189.59 C2450.65,189.59 2450.65,119.51 2450.65,83.56" fill="none" id="nav_point_manager-to-main_page" style="stroke:#181818;stroke-width:1;"/><polygon fill="#181818" points="2450.65,77.56,2446.65,86.56,2450.65,82.56,2454.65,86.56,2450.65,77.56" style="stroke:#181818;stroke-width:1;"/><text fill="#000000" font-family="sans-serif" font-size="13" lengthAdjust="spacing" textLength="164.1123" x="2285.65" y="140.2669">Navigation point updates</text></g><!--link main_page to theme_provider--><g class="link" data-entity-1="main_page" data-entity-2="theme_provider" data-source-line="48" data-uid="lnk33" id="link_main_page_theme_provider"><path d="M2481.81,77.73 C2481.81,102.39 2481.81,139.66 2481.81,164.31" fill="none" id="main_page-to-theme_provider" style="stroke:#181818;stroke-width:1;"/><polygon fill="#181818" points="2481.81,170.31,2485.81,161.31,2481.81,165.31,2477.81,161.31,2481.81,170.31" style="stroke:#181818;stroke-width:1;"/><text fill="#000000" font-family="sans-serif" font-size="13" lengthAdjust="spacing" textLength="93.52" x="2387.81" y="120.0869">Applies theme</text></g><!--link main_page to diagnostic_manager--><g class="link" data-entity-1="main_page" data-entity-2="diagnostic_manager" data-source-line="49" data-uid="lnk34" id="link_main_page_diagnostic_manager"><path d="M2458.52,77.74 C2458.52,168.04 2458.52,556.59 2458.52,556.59 C2458.52,556.59 2512.37,556.59 2564.97,556.59" fill="none" id="main_page-to-diagnostic_manager" style="stroke:#181818;stroke-width:1;"/><polygon fill="#181818" points="2570.97,556.59,2561.97,552.59,2565.97,556.59,2561.97,560.59,2570.97,556.59" style="stroke:#181818;stroke-width:1;"/><text fill="#000000" font-family="sans-serif" font-size="13" lengthAdjust="spacing" textLength="156.6792" x="2459.52" y="386.4569">Shows diagnostic toasts</text></g><!--link diagnostic_manager to main_page--><g class="link" data-entity-1="diagnostic_manager" data-entity-2="main_page" data-source-line="101" data-uid="lnk71" id="link_diagnostic_manager_main_page"><path d="M2570.96,544.59 C2519.35,544.59 2461.14,544.59 2461.14,544.59 C2461.14,544.59 2461.14,172.25 2461.14,83.58" fill="none" id="diagnostic_manager-to-main_page" style="stroke:#181818;stroke-width:1;"/><polygon fill="#181818" points="2461.14,77.58,2457.14,86.58,2461.14,82.58,2465.14,86.58,2461.14,77.58" style="stroke:#181818;stroke-width:1;"/><text fill="#000000" font-family="sans-serif" font-size="13" lengthAdjust="spacing" textLength="152.6738" x="2462.14" y="362.0669">Diagnostic notifications</text></g><!--link connect_page to ros_channel--><g class="link" data-entity-1="connect_page" data-entity-2="ros_channel" data-source-line="51" data-uid="lnk35" id="link_connect_page_ros_channel"><path d="M2038,77.36 C2038,142.16 2038,357.59 2038,357.59 C2038,357.59 2193.68,357.59 2279.26,357.59" fill="none" id="connect_page-to-ros_channel" style="stroke:#181818;stroke-width:1;"/><polygon fill="#181818" points="2285.26,357.59,2276.26,353.59,2280.26,357.59,2276.26,361.59,2285.26,357.59" style="stroke:#181818;stroke-width:1;"/><text fill="#000000" font-family="sans-serif" font-size="13" lengthAdjust="spacing" textLength="109.3574" x="1907.2678" y="322.1769">Connects to ROS</text><text fill="#000000" font-family="sans-serif" font-size="13" lengthAdjust="spacing" textLength="151.8931" x="1886" y="337.3097">and initializes channels</text></g><!--link gamepad_widget to ros_channel--><g class="link" data-entity-1="gamepad_widget" data-entity-2="ros_channel" data-source-line="53" data-uid="lnk36" id="link_gamepad_widget_ros_channel"><path d="M2198,77.69 C2198,142.59 2198,355.59 2198,355.59 C2198,355.59 2239.72,355.59 2279.24,355.59" fill="none" id="gamepad_widget-to-ros_channel" style="stroke:#181818;stroke-width:1;"/><polygon fill="#181818" points="2285.24,355.59,2276.24,351.59,2280.24,355.59,2276.24,359.59,2285.24,355.59" style="stroke:#181818;stroke-width:1;"/><text fill="#000000" font-family="sans-serif" font-size="13" lengthAdjust="spacing" textLength="158.7104" x="2039" y="256.3269">Sends speed commands</text></g><!--link diagnostic_page to diagnostic_manager--><g class="link" data-entity-1="diagnostic_page" data-entity-2="diagnostic_manager" data-source-line="55" data-uid="lnk37" id="link_diagnostic_page_diagnostic_manager"><path d="M2742.78,77.58 C2742.78,166.25 2742.78,544.59 2742.78,544.59 C2742.78,544.59 2742.35,544.59 2732.87,544.59" fill="none" id="diagnostic_page-to-diagnostic_manager" style="stroke:#181818;stroke-width:1;"/><polygon fill="#181818" points="2726.87,544.59,2735.87,548.59,2731.87,544.59,2735.87,540.59,2726.87,544.59" style="stroke:#181818;stroke-width:1;"/><text fill="#000000" font-family="sans-serif" font-size="13" lengthAdjust="spacing" textLength="159.1421" x="2582.78" y="332.1069">Displays diagnostic data</text></g><!--link map_edit_page to ros_channel--><g class="link" data-entity-1="map_edit_page" data-entity-2="ros_channel" data-source-line="57" data-uid="lnk38" id="link_map_edit_page_ros_channel"><path d="M2301.13,59.59 C2287.08,59.59 2275.92,59.59 2275.92,59.59 C2275.92,59.59 2275.92,353.59 2275.92,353.59 C2275.92,353.59 2273.62,353.59 2279.2,353.59" fill="none" id="map_edit_page-to-ros_channel" style="stroke:#181818;stroke-width:1;"/><polygon fill="#181818" points="2285.2,353.59,2276.2,349.59,2280.2,353.59,2276.2,357.59,2285.2,353.59" style="stroke:#181818;stroke-width:1;"/><text fill="#000000" font-family="sans-serif" font-size="13" lengthAdjust="spacing" textLength="147.7671" x="2127.92" y="194.6869">Updates topology map</text></g><!--link map_edit_page to nav_point_manager--><g class="link" data-entity-1="map_edit_page" data-entity-2="nav_point_manager" data-source-line="58" data-uid="lnk39" id="link_map_edit_page_nav_point_manager"><path d="M2357,77.73 C2357,102.39 2357,139.66 2357,164.31" fill="none" id="map_edit_page-to-nav_point_manager" style="stroke:#181818;stroke-width:1;"/><polygon fill="#181818" points="2357,170.31,2361,161.31,2357,165.31,2353,161.31,2357,170.31" style="stroke:#181818;stroke-width:1;"/><text fill="#000000" font-family="sans-serif" font-size="13" lengthAdjust="spacing" textLength="175.2334" x="2181" y="120.0869">Manages navigation points</text></g><!--link setting_page to global_state--><g class="link" data-entity-1="setting_page" data-entity-2="global_state" data-source-line="60" data-uid="lnk40" id="link_setting_page_global_state"><path d="M2650.23,77.73 C2650.23,102.39 2650.23,139.66 2650.23,164.31" fill="none" id="setting_page-to-global_state" style="stroke:#181818;stroke-width:1;"/><polygon fill="#181818" points="2650.23,170.31,2654.23,161.31,2650.23,165.31,2646.23,161.31,2650.23,170.31" style="stroke:#181818;stroke-width:1;"/><text fill="#000000" font-family="sans-serif" font-size="13" lengthAdjust="spacing" textLength="138.5693" x="2511.23" y="120.0869">Modifies app settings</text></g><!--link global_state to ros_channel--><g class="link" data-entity-1="global_state" data-entity-2="ros_channel" data-source-line="63" data-uid="lnk41" id="link_global_state_ros_channel"><path d="M2675.9,207.18 C2675.9,253.13 2675.9,369.59 2675.9,369.59 C2675.9,369.59 2489.78,369.59 2394.84,369.59" fill="none" id="global_state-to-ros_channel" style="stroke:#181818;stroke-width:1;"/><polygon fill="#181818" points="2388.84,369.59,2397.84,373.59,2393.84,369.59,2397.84,365.59,2388.84,369.59" style="stroke:#181818;stroke-width:1;"/><text fill="#000000" font-family="sans-serif" font-size="13" lengthAdjust="spacing" textLength="147.8687" x="2577.32" y="382.6569">Controls manual mode</text></g><!--link ros_channel to diagnostic_manager--><g class="link" data-entity-1="ros_channel" data-entity-2="diagnostic_manager" data-source-line="64" data-uid="lnk42" id="link_ros_channel_diagnostic_manager"><path d="M2389,381.59 C2460.6,381.59 2580.79,381.59 2580.79,381.59 C2580.79,381.59 2580.79,482.03 2580.79,525.68" fill="none" id="ros_channel-to-diagnostic_manager" style="stroke:#181818;stroke-width:1;"/><polygon fill="#181818" points="2580.79,531.68,2584.79,522.68,2580.79,526.68,2576.79,522.68,2580.79,531.68" style="stroke:#181818;stroke-width:1;"/><text fill="#000000" font-family="sans-serif" font-size="13" lengthAdjust="spacing" textLength="159.9165" x="2399.94" y="394.6569">Provides diagnostic data</text></g><!--link ros_server to map_topic--><g class="link" data-entity-1="ros_server" data-entity-2="map_topic" data-source-line="67" data-uid="lnk43" id="link_ros_server_map_topic"><path d="M850.84,72.59 C815.7,72.59 775,72.59 775,72.59 C775,72.59 775,131.65 775,164.43" fill="none" id="ros_server-to-map_topic" style="stroke:#181818;stroke-width:1;"/><polygon fill="#181818" points="775,170.43,779,161.43,775,165.43,771,161.43,775,170.43" style="stroke:#181818;stroke-width:1;"/></g><!--link ros_server to laser_topic--><g class="link" data-entity-1="ros_server" data-entity-2="laser_topic" data-source-line="68" data-uid="lnk44" id="link_ros_server_laser_topic"><path d="M901,77.73 C901,102.39 901,139.66 901,164.31" fill="none" id="ros_server-to-laser_topic" style="stroke:#181818;stroke-width:1;"/><polygon fill="#181818" points="901,170.31,905,161.31,901,165.31,897,161.31,901,170.31" style="stroke:#181818;stroke-width:1;"/></g><!--link ros_server to odom_topic--><g class="link" data-entity-1="ros_server" data-entity-2="odom_topic" data-source-line="69" data-uid="lnk45" id="link_ros_server_odom_topic"><path d="M951.28,72.59 C988.94,72.59 1034,72.59 1034,72.59 C1034,72.59 1034,131.65 1034,164.43" fill="none" id="ros_server-to-odom_topic" style="stroke:#181818;stroke-width:1;"/><polygon fill="#181818" points="1034,170.43,1038,161.43,1034,165.43,1030,161.43,1034,170.43" style="stroke:#181818;stroke-width:1;"/></g><!--link ros_server to battery_topic--><g class="link" data-entity-1="ros_server" data-entity-2="battery_topic" data-source-line="70" data-uid="lnk46" id="link_ros_server_battery_topic"><path d="M951.39,67.59 C1030.27,67.59 1174,67.59 1174,67.59 C1174,67.59 1174,130.51 1174,164.44" fill="none" id="ros_server-to-battery_topic" style="stroke:#181818;stroke-width:1;"/><polygon fill="#181818" points="1174,170.44,1178,161.44,1174,165.44,1170,161.44,1174,170.44" style="stroke:#181818;stroke-width:1;"/></g><!--link ros_server to nav_goal_topic--><g class="link" data-entity-1="ros_server" data-entity-2="nav_goal_topic" data-source-line="71" data-uid="lnk47" id="link_ros_server_nav_goal_topic"><path d="M951.36,62.59 C1063.11,62.59 1322,62.59 1322,62.59 C1322,62.59 1322,129.1 1322,164.22" fill="none" id="ros_server-to-nav_goal_topic" style="stroke:#181818;stroke-width:1;"/><polygon fill="#181818" points="1322,170.22,1326,161.22,1322,165.22,1318,161.22,1322,170.22" style="stroke:#181818;stroke-width:1;"/></g><!--link ros_server to speed_ctrl_topic--><g class="link" data-entity-1="ros_server" data-entity-2="speed_ctrl_topic" data-source-line="72" data-uid="lnk48" id="link_ros_server_speed_ctrl_topic"><path d="M951.28,56.59 C1091.91,56.59 1479,56.59 1479,56.59 C1479,56.59 1479,128.12 1479,164.46" fill="none" id="ros_server-to-speed_ctrl_topic" style="stroke:#181818;stroke-width:1;"/><polygon fill="#181818" points="1479,170.46,1483,161.46,1479,165.46,1475,161.46,1479,170.46" style="stroke:#181818;stroke-width:1;"/></g><!--link ros_server to diagnostic_topic--><g class="link" data-entity-1="ros_server" data-entity-2="diagnostic_topic" data-source-line="73" data-uid="lnk49" id="link_ros_server_diagnostic_topic"><path d="M951.42,51.59 C1118.42,51.59 1643,51.59 1643,51.59 C1643,51.59 1643,126.88 1643,164.34" fill="none" id="ros_server-to-diagnostic_topic" style="stroke:#181818;stroke-width:1;"/><polygon fill="#181818" points="1643,170.34,1647,161.34,1643,165.34,1639,161.34,1643,170.34" style="stroke:#181818;stroke-width:1;"/></g><!--link ros_server to topology_map_topic--><g class="link" data-entity-1="ros_server" data-entity-2="topology_map_topic" data-source-line="74" data-uid="lnk50" id="link_ros_server_topology_map_topic"><path d="M951.33,46.59 C1143.34,46.59 1819,46.59 1819,46.59 C1819,46.59 1819,125.69 1819,164.26" fill="none" id="ros_server-to-topology_map_topic" style="stroke:#181818;stroke-width:1;"/><polygon fill="#181818" points="1819,170.26,1823,161.26,1819,165.26,1815,161.26,1819,170.26" style="stroke:#181818;stroke-width:1;"/></g><!--link ros_server to tf_topic--><g class="link" data-entity-1="ros_server" data-entity-2="tf_topic" data-source-line="75" data-uid="lnk51" id="link_ros_server_tf_topic"><path d="M850.78,46.59 C669.99,46.59 63,46.59 63,46.59 C63,46.59 63,125.69 63,164.26" fill="none" id="ros_server-to-tf_topic" style="stroke:#181818;stroke-width:1;"/><polygon fill="#181818" points="63,170.26,67,161.26,63,165.26,59,161.26,63,170.26" style="stroke:#181818;stroke-width:1;"/></g><!--link ros_server to path_topics--><g class="link" data-entity-1="ros_server" data-entity-2="path_topics" data-source-line="76" data-uid="lnk52" id="link_ros_server_path_topics"><path d="M850.51,51.59 C687.69,51.59 187,51.59 187,51.59 C187,51.59 187,126.88 187,164.34" fill="none" id="ros_server-to-path_topics" style="stroke:#181818;stroke-width:1;"/><polygon fill="#181818" points="187,170.34,191,161.34,187,165.34,183,161.34,187,170.34" style="stroke:#181818;stroke-width:1;"/></g><!--link ros_server to costmap_topics--><g class="link" data-entity-1="ros_server" data-entity-2="costmap_topics" data-source-line="77" data-uid="lnk53" id="link_ros_server_costmap_topics"><path d="M850.68,56.59 C711.92,56.59 334,56.59 334,56.59 C334,56.59 334,128.12 334,164.46" fill="none" id="ros_server-to-costmap_topics" style="stroke:#181818;stroke-width:1;"/><polygon fill="#181818" points="334,170.46,338,161.46,334,165.46,330,161.46,334,170.46" style="stroke:#181818;stroke-width:1;"/></g><!--link ros_server to pointcloud_topic--><g class="link" data-entity-1="ros_server" data-entity-2="pointcloud_topic" data-source-line="78" data-uid="lnk54" id="link_ros_server_pointcloud_topic"><path d="M850.9,62.59 C743.14,62.59 499,62.59 499,62.59 C499,62.59 499,129.1 499,164.22" fill="none" id="ros_server-to-pointcloud_topic" style="stroke:#181818;stroke-width:1;"/><polygon fill="#181818" points="499,170.22,503,161.22,499,165.22,495,161.22,499,170.22" style="stroke:#181818;stroke-width:1;"/></g><!--link ros_server to reloc_topic--><g class="link" data-entity-1="ros_server" data-entity-2="reloc_topic" data-source-line="79" data-uid="lnk55" id="link_ros_server_reloc_topic"><path d="M850.71,67.59 C776.93,67.59 648,67.59 648,67.59 C648,67.59 648,130.51 648,164.44" fill="none" id="ros_server-to-reloc_topic" style="stroke:#181818;stroke-width:1;"/><polygon fill="#181818" points="648,170.44,652,161.44,648,165.44,644,161.44,648,170.44" style="stroke:#181818;stroke-width:1;"/></g><!--link map_topic to ros_channel--><g class="link" data-entity-1="map_topic" data-entity-2="ros_channel" data-source-line="82" data-uid="lnk56" id="link_map_topic_ros_channel"><path d="M775,207.44 C775,254.68 775,375.59 775,375.59 C775,375.59 2008,375.59 2279.03,375.59" fill="none" id="map_topic-to-ros_channel" style="stroke:#181818;stroke-width:1;"/><polygon fill="#181818" points="2285.03,375.59,2276.03,371.59,2280.03,375.59,2276.03,379.59,2285.03,375.59" style="stroke:#181818;stroke-width:1;"/><text fill="#000000" font-family="sans-serif" font-size="13" lengthAdjust="spacing" textLength="60.8486" x="1384.94" y="371.6569">Map data</text></g><!--link laser_topic to ros_channel--><g class="link" data-entity-1="laser_topic" data-entity-2="ros_channel" data-source-line="83" data-uid="lnk57" id="link_laser_topic_ros_channel"><path d="M901,207.24 C901,253.97 901,373.59 901,373.59 C901,373.59 2021.6,373.59 2279.04,373.59" fill="none" id="laser_topic-to-ros_channel" style="stroke:#181818;stroke-width:1;"/><polygon fill="#181818" points="2285.04,373.59,2276.04,369.59,2280.04,373.59,2276.04,377.59,2285.04,373.59" style="stroke:#181818;stroke-width:1;"/><text fill="#000000" font-family="sans-serif" font-size="13" lengthAdjust="spacing" textLength="102.9971" x="1510.85" y="386.6569">Laser scan data</text></g><!--link odom_topic to ros_channel--><g class="link" data-entity-1="odom_topic" data-entity-2="ros_channel" data-source-line="84" data-uid="lnk58" id="link_odom_topic_ros_channel"><path d="M1034,207.38 C1034,253.84 1034,371.59 1034,371.59 C1034,371.59 2036.77,371.59 2279.12,371.59" fill="none" id="odom_topic-to-ros_channel" style="stroke:#181818;stroke-width:1;"/><polygon fill="#181818" points="2285.12,371.59,2276.12,367.59,2280.12,371.59,2276.12,375.59,2285.12,371.59" style="stroke:#181818;stroke-width:1;"/><text fill="#000000" font-family="sans-serif" font-size="13" lengthAdjust="spacing" textLength="98.6489" x="1478.45" y="367.6569">Odometry data</text></g><!--link battery_topic to ros_channel--><g class="link" data-entity-1="battery_topic" data-entity-2="ros_channel" data-source-line="85" data-uid="lnk59" id="link_battery_topic_ros_channel"><path d="M1174,207.18 C1174,253.13 1174,369.59 1174,369.59 C1174,369.59 2053.46,369.59 2279.15,369.59" fill="none" id="battery_topic-to-ros_channel" style="stroke:#181818;stroke-width:1;"/><polygon fill="#181818" points="2285.15,369.59,2276.15,365.59,2280.15,369.59,2276.15,373.59,2285.15,369.59" style="stroke:#181818;stroke-width:1;"/><text fill="#000000" font-family="sans-serif" font-size="13" lengthAdjust="spacing" textLength="92.1934" x="1649.37" y="382.6569">Battery status</text></g><!--link diagnostic_topic to ros_channel--><g class="link" data-entity-1="diagnostic_topic" data-entity-2="ros_channel" data-source-line="86" data-uid="lnk60" id="link_diagnostic_topic_ros_channel"><path d="M1643,207.22 C1643,252.09 1643,363.59 1643,363.59 C1643,363.59 2118,363.59 2279.12,363.59" fill="none" id="diagnostic_topic-to-ros_channel" style="stroke:#181818;stroke-width:1;"/><polygon fill="#181818" points="2285.12,363.59,2276.12,359.59,2280.12,363.59,2276.12,367.59,2285.12,363.59" style="stroke:#181818;stroke-width:1;"/><text fill="#000000" font-family="sans-serif" font-size="13" lengthAdjust="spacing" textLength="102.0767" x="1782.88" y="359.6569">Diagnostic data</text></g><!--link topology_map_topic to ros_channel--><g class="link" data-entity-1="topology_map_topic" data-entity-2="ros_channel" data-source-line="87" data-uid="lnk61" id="link_topology_map_topic_ros_channel"><path d="M1844.22,207.45 C1844.22,251.7 1844.22,359.59 1844.22,359.59 C1844.22,359.59 2152.68,359.59 2279.2,359.59" fill="none" id="topology_map_topic-to-ros_channel" style="stroke:#181818;stroke-width:1;"/><polygon fill="#181818" points="2285.2,359.59,2276.2,355.59,2280.2,359.59,2276.2,363.59,2285.2,359.59" style="stroke:#181818;stroke-width:1;"/><text fill="#000000" font-family="sans-serif" font-size="13" lengthAdjust="spacing" textLength="126.0391" x="1989.64" y="355.6569">Topology map data</text></g><!--reverse link topology_map_topic to ros_channel--><g class="link" data-entity-1="topology_map_topic" data-entity-2="ros_channel" data-source-line="97" data-uid="lnk69" id="link_topology_map_topic_ros_channel"><path d="M1793.78,213.34 C1793.78,257.9 1793.78,361.59 1793.78,361.59 C1793.78,361.59 2149.81,361.59 2285.41,361.59" fill="none" id="topology_map_topic-backto-ros_channel" style="stroke:#181818;stroke-width:1;"/><polygon fill="#181818" points="1793.78,207.34,1789.78,216.34,1793.78,212.34,1797.78,216.34,1793.78,207.34" style="stroke:#181818;stroke-width:1;"/><text fill="#000000" font-family="sans-serif" font-size="13" lengthAdjust="spacing" textLength="149.335" x="1963.47" y="374.6569">Topology map updates</text></g><!--link tf_topic to ros_channel--><g class="link" data-entity-1="tf_topic" data-entity-2="ros_channel" data-source-line="88" data-uid="lnk62" id="link_tf_topic_ros_channel"><path d="M63,207.36 C63,256.34 63,385.59 63,385.59 C63,385.59 1940.75,385.59 2279.23,385.59" fill="none" id="tf_topic-to-ros_channel" style="stroke:#181818;stroke-width:1;"/><polygon fill="#181818" points="2285.23,385.59,2276.23,381.59,2280.23,385.59,2276.23,389.59,2285.23,385.59" style="stroke:#181818;stroke-width:1;"/><text fill="#000000" font-family="sans-serif" font-size="13" lengthAdjust="spacing" textLength="100.2168" x="984" y="381.6569">Transform data</text></g><!--link path_topics to ros_channel--><g class="link" data-entity-1="path_topics" data-entity-2="ros_channel" data-source-line="89" data-uid="lnk63" id="link_path_topics_ros_channel"><path d="M187,207.18 C187,255.65 187,383.59 187,383.59 C187,383.59 1951.53,383.59 2279.18,383.59" fill="none" id="path_topics-to-ros_channel" style="stroke:#181818;stroke-width:1;"/><polygon fill="#181818" points="2285.18,383.59,2276.18,379.59,2280.18,383.59,2276.18,387.59,2285.18,383.59" style="stroke:#181818;stroke-width:1;"/><text fill="#000000" font-family="sans-serif" font-size="13" lengthAdjust="spacing" textLength="62.5562" x="1148.88" y="379.6569">Path data</text></g><!--link costmap_topics to ros_channel--><g class="link" data-entity-1="costmap_topics" data-entity-2="ros_channel" data-source-line="90" data-uid="lnk64" id="link_costmap_topics_ros_channel"><path d="M334,207.34 C334,255.58 334,381.59 334,381.59 C334,381.59 1965.07,381.59 2279.22,381.59" fill="none" id="costmap_topics-to-ros_channel" style="stroke:#181818;stroke-width:1;"/><polygon fill="#181818" points="2285.22,381.59,2276.22,377.59,2280.22,381.59,2276.22,385.59,2285.22,381.59" style="stroke:#181818;stroke-width:1;"/><text fill="#000000" font-family="sans-serif" font-size="13" lengthAdjust="spacing" textLength="91.1968" x="1223.48" y="394.6569">Costmap data</text></g><!--link pointcloud_topic to ros_channel--><g class="link" data-entity-1="pointcloud_topic" data-entity-2="ros_channel" data-source-line="91" data-uid="lnk65" id="link_pointcloud_topic_ros_channel"><path d="M499,207.49 C499,255.48 499,379.59 499,379.59 C499,379.59 1981.46,379.59 2279.44,379.59" fill="none" id="pointcloud_topic-to-ros_channel" style="stroke:#181818;stroke-width:1;"/><polygon fill="#181818" points="2285.44,379.59,2276.44,375.59,2280.44,379.59,2276.44,383.59,2285.44,379.59" style="stroke:#181818;stroke-width:1;"/><text fill="#000000" font-family="sans-serif" font-size="13" lengthAdjust="spacing" textLength="105.4917" x="1307.17" y="392.6569">Point cloud data</text></g><!--reverse link nav_goal_topic to ros_channel--><g class="link" data-entity-1="nav_goal_topic" data-entity-2="ros_channel" data-source-line="94" data-uid="lnk66" id="link_nav_goal_topic_ros_channel"><path d="M1322,213.31 C1322,258.98 1322,367.59 1322,367.59 C1322,367.59 2078.43,367.59 2285.27,367.59" fill="none" id="nav_goal_topic-backto-ros_channel" style="stroke:#181818;stroke-width:1;"/><polygon fill="#181818" points="1322,207.31,1318,216.31,1322,212.31,1326,216.31,1322,207.31" style="stroke:#181818;stroke-width:1;"/><text fill="#000000" font-family="sans-serif" font-size="13" lengthAdjust="spacing" textLength="108.8052" x="1614.5" y="363.6569">Navigation goals</text></g><!--reverse link speed_ctrl_topic to ros_channel--><g class="link" data-entity-1="speed_ctrl_topic" data-entity-2="ros_channel" data-source-line="95" data-uid="lnk67" id="link_speed_ctrl_topic_ros_channel"><path d="M1479,213.44 C1479,258.81 1479,365.59 1479,365.59 C1479,365.59 2099.76,365.59 2285.26,365.59" fill="none" id="speed_ctrl_topic-backto-ros_channel" style="stroke:#181818;stroke-width:1;"/><polygon fill="#181818" points="1479,207.44,1475,216.44,1479,212.44,1483,216.44,1479,207.44" style="stroke:#181818;stroke-width:1;"/><text fill="#000000" font-family="sans-serif" font-size="13" lengthAdjust="spacing" textLength="116.543" x="1804.05" y="378.6569">Speed commands</text></g><!--reverse link reloc_topic to ros_channel--><g class="link" data-entity-1="reloc_topic" data-entity-2="ros_channel" data-source-line="96" data-uid="lnk68" id="link_reloc_topic_ros_channel"><path d="M648,213.3 C648,260.79 648,377.59 648,377.59 C648,377.59 2000.99,377.59 2285.07,377.59" fill="none" id="reloc_topic-backto-ros_channel" style="stroke:#181818;stroke-width:1;"/><polygon fill="#181818" points="648,207.3,644,216.3,648,212.3,652,216.3,648,207.3" style="stroke:#181818;stroke-width:1;"/><text fill="#000000" font-family="sans-serif" font-size="13" lengthAdjust="spacing" textLength="110.4937" x="1270.39" y="373.6569">Relocation poses</text></g><!--SRC=[bLXjRzis4FwkNq7uInmWtjhjMp4CIFDI34kSm7RM3yjWC19j4vL9WQJZkaF_- -wEb4XHQe01GP2xUtZYlJqaSyOkcwQM9NTIAxPqt0cs43M9TYSRorw4EmgXs6TPROMpZAkAVUJb5w6geZXZrs8ZbM1k9vZz8XLhkE5xuOInRACDheQ_sQkq1rxBR-ItG23XM0rhtQaHJ1ktqucXrFj6Aw7SqfrgmOme7LVRMYIGIcpueNOhyTLTrdAhze1c9VmI9a4fxSIj1Z_ocs3ltsLRtdFOSlSjMpGG6DyADhcj3xJnfp_O7Jy9Cs7_5epzVG_uHm3ymxYbnUi69BHSQQLWavsnz79d_mHPQNZbiqY8hTUiZwH2pBNaMwMjasNdfkfKdQTxtjnKqYNRQDO251rW2JcNQji1h9Uz_NiHW_JblkSA9ChUzD7eLra9SnxY_LJh5ruJpk-PvBL51TeNsbxjE4HQazbekowzt8_7VyFa8Usz6h5p_lgefN8fKl7NTOFA5BZQmLxRVHBCeMRT15KlmiN3ictM415gbiAyXhMuOqjYIErADxBiykfGGiiT1rIqrIX6wqEbzz6eGOgsZnmRwHJDBruH4H3w9ythYC2ujw29a6KZH7NbJ0Aog5gNe8kmcF28IzBTuS2gQxqzzU9rGRdk1RwwNIUGJJGyShSZYoLJ0w8tMZyErks3Tni6WZG9XkfzLUj35Rz0vIvH5xy4VAIJW0oAmVeTvzctiHbbBPZVEDx4NTIxhEqMMtHJp6QptzCEPX_Ov4vQ9nJc1YmlsldLpseAcRjWZzeA-0sHsujdHIromKBagBdLsZK60a9e6-lv9FjaEbFupISheFbq9N2xpwf6-cbdsEQB1oE27lmCKH_9hMTsmWnMzoS7bz9f8C9CvV3XvEAIvKuVqpQ3P76BtofI3XpBRk1CIY_CvRF2-aWbdSIp0dOHiEYhpvPZtfOmv64iiEQmmmeNPWpwHY3NqZQGxLui5NSSdFGuTkpZJmqWHHmYP8_9oBB_MwyY9U_HThdNbTnWoNZJ96tIpKNNwVq9ANf-nelZZAwH1nMStTIHao85_JYJWPx7Cdc6bGOE94xEjXJ9c7n77ieCAVjcfeHxCqkVTZDZnhYPTK2rcNr0iPbzX5bpn6PSdx9gPihuD5-OysXcJqaKhqHG7BQfzP5jZDvJYM0cXrGPFZVMBy28eSP9UKOv5StCbbm5VApP61pFLk7CAO1xPHp3X_EMDd-0GSYBCxRcEc_JOSN6bgsIOMyNRjw06wuiN8ht0PiKTmoEvqf0zcizFgs4Q3rdrHzrZnX6e3YRMHza3H1ukkXF2_jjDikTpoEJ8H3AaC_GsAfbnjr9aux1wLxGqYKScgDb6rdNAzl14tT2cF1Y04BrZks0yEA929x-ulL1p0aFBHrSlNax2Dq92WhsWWbN_dJUwzAMHmTVIxgqjyT9CJnL1eldsTaI0nyS1Brrz-4Ymlmz15EnfNJXmuePkTqvfZVPpH_F3d02PmSyq6G33xXUfkXf-05mCzQo1WaBkc9XBKdqHD5PqmWmgQJiJtlYXVgDvFP2HaBUzQJCnZ__Ml2DvnK6dOS- -fvfZ_Ja0AG4Mn_smvzi-kwS_lnykPYpwNilt2mM3mis_SLBozNbtGsR_eeI_7IdgX6ydZcvptkLqPDRYICJncXZVpvoe_0wyCEzP- -vz7y1UDw7tSw1itZjauipHtzTLbNxPejflvLVuPtYt-2XlFXMzVkdXpJ-Aq2-o5gwKtTRwRRt7m00]--></g></svg>